<?xml version="1.0" standalone="no"?>
<!DOCTYPE svg PUBLIC "-//W3C//DTD SVG 20010904//EN"
 "http://www.w3.org/TR/2001/REC-SVG-20010904/DTD/svg10.dtd">
<svg version="1.0" xmlns="http://www.w3.org/2000/svg"
 width="1303.000000pt" height="634.000000pt" viewBox="0 0 1303.000000 634.000000"
 preserveAspectRatio="xMidYMid meet">

<g transform="translate(0.000000,634.000000) scale(0.100000,-0.100000)"
fill="#000000" stroke="none">
<path d="M1840 5996 c0 -8 4 -17 9 -20 11 -7 33 18 24 27 -12 12 -33 7 -33 -7z"/>
<path d="M2330 5996 c0 -8 4 -17 9 -20 11 -7 33 18 24 27 -12 12 -33 7 -33 -7z"/>
<path d="M1340 5988 c0 -7 13 -47 29 -88 40 -104 59 -106 94 -8 33 93 35 103
18 103 -8 0 -22 -23 -33 -55 -10 -30 -22 -58 -26 -62 -5 -5 -19 20 -33 54 -22
57 -49 88 -49 56z"/>
<path d="M2241 5978 c-10 -28 -2 -128 11 -145 12 -15 58 -17 58 -3 0 5 -9 14
-20 20 -14 8 -20 21 -20 45 0 28 4 35 20 35 11 0 20 7 20 15 0 8 -7 15 -16 15
-9 0 -18 9 -21 20 -7 26 -21 25 -32 -2z"/>
<path d="M1530 5938 c-24 -26 -26 -65 -5 -96 13 -18 25 -21 75 -21 l60 1 0 68
0 68 -55 1 c-44 0 -59 -4 -75 -21z m85 -48 c0 -31 -3 -35 -27 -38 -34 -4 -54
27 -38 59 8 14 19 19 38 17 24 -3 27 -7 27 -38z"/>
<path d="M1700 5940 c-24 -24 -26 -67 -4 -98 13 -19 24 -22 56 -20 25 2 45 10
52 20 13 21 0 36 -16 20 -20 -20 -66 -15 -73 8 -13 42 33 78 62 49 6 -6 19 -9
29 -7 17 3 17 5 -4 26 -28 28 -75 29 -102 2z"/>
<path d="M1840 5890 c0 -56 3 -70 15 -70 12 0 15 14 15 70 0 56 -3 70 -15 70
-12 0 -15 -14 -15 -70z"/>
<path d="M1910 5889 c0 -54 3 -69 14 -69 11 0 16 15 18 53 3 48 5 52 28 52 23
0 25 -4 28 -52 2 -38 7 -53 18 -53 19 0 20 113 1 128 -7 6 -34 11 -60 10 l-47
-1 0 -68z"/>
<path d="M2079 5939 c-23 -23 -25 -66 -3 -97 13 -18 24 -22 70 -21 l54 2 0 67
0 67 -51 1 c-37 1 -55 -4 -70 -19z m81 -23 c6 -8 10 -25 8 -38 -6 -42 -78 -32
-78 11 0 37 46 55 70 27z"/>
<path d="M2330 5890 c0 -56 3 -70 15 -70 12 0 15 14 15 70 0 56 -3 70 -15 70
-12 0 -15 -14 -15 -70z"/>
<path d="M2412 5944 c-28 -20 -31 -83 -4 -107 44 -40 122 -7 122 51 0 59 -67
92 -118 56z m80 -39 c14 -31 -3 -55 -39 -55 -27 0 -38 19 -29 55 9 35 52 35
68 0z"/>
<path d="M2560 5889 c0 -54 3 -69 14 -69 11 0 16 15 18 53 3 48 5 52 28 52 23
0 25 -4 28 -52 2 -38 7 -53 18 -53 19 0 20 113 1 128 -7 6 -34 11 -60 10 l-47
-1 0 -68z"/>
<path d="M6730 2545 l0 -2545 435 0 435 0 20 41 c12 22 47 122 80 223 121 377
167 495 290 749 48 100 48 111 1 211 -79 168 -78 157 -60 421 14 210 11 205
143 205 96 0 132 10 101 27 -12 7 -16 20 -13 44 3 37 -7 32 126 55 29 6 32 10
32 40 0 28 -9 43 -45 77 -25 24 -45 48 -45 54 0 6 10 22 21 37 17 21 27 26 45
22 20 -5 24 -2 25 16 0 13 7 86 14 163 11 125 13 132 14 63 l1 -77 51 2 51 2
-7 -102 c-6 -89 -5 -104 9 -109 21 -8 21 -24 0 -24 -27 0 3 -28 60 -57 49 -25
166 -111 272 -200 46 -39 56 -43 104 -43 31 0 81 10 122 25 45 16 90 25 130
25 38 0 86 9 127 23 64 23 101 25 101 6 0 -5 11 -9 24 -9 41 0 56 -11 77 -56
14 -32 18 -55 13 -79 -6 -32 -4 -35 16 -35 22 0 23 -2 16 -63 -7 -75 6 -123
37 -131 34 -9 87 -7 87 3 0 5 10 13 21 16 17 6 19 9 8 17 -10 6 -2 8 24 3 23
-4 37 -2 37 5 0 5 -10 10 -22 10 -13 0 -42 9 -66 20 -52 24 -72 64 -72 146 l0
56 23 -16 c12 -9 43 -31 69 -49 26 -17 48 -40 48 -49 0 -10 3 -17 8 -16 4 0
18 -4 32 -10 15 -6 19 -11 10 -12 -10 -1 -9 -4 5 -9 19 -8 19 -8 -2 -15 -13
-4 -23 -11 -23 -16 0 -18 60 -70 79 -70 20 0 73 56 71 74 -1 5 4 13 12 18 9 6
6 7 -9 3 -17 -5 -23 -2 -23 9 0 9 7 16 16 16 8 0 12 5 9 10 -3 6 -3 10 2 10
13 0 12 50 -1 51 -59 4 -83 22 -82 62 2 24 -2 27 -34 28 -34 1 -34 1 -8 9 83
25 176 121 243 250 54 106 70 144 54 134 -7 -4 -10 -2 -8 5 4 10 33 30 67 48
2 1 -4 12 -13 26 -11 17 -13 27 -6 32 6 3 11 14 11 23 0 14 -2 13 -13 -3 -8
-10 -19 -15 -25 -11 -13 8 -44 -3 -37 -14 3 -5 0 -12 -6 -16 -8 -5 -9 -3 -4 6
5 9 2 10 -12 6 -15 -5 -24 3 -41 36 -19 39 -20 44 -5 60 15 17 15 18 -3 19
-14 0 -11 4 9 11 25 9 28 14 22 37 -4 14 -8 28 -10 30 -2 2 -35 -11 -72 -29
-37 -19 -70 -34 -73 -34 -3 -1 -17 -10 -32 -20 -16 -10 -35 -16 -43 -12 -17 6
-22 -29 -5 -39 6 -3 10 1 10 9 0 9 7 16 15 16 9 0 12 -6 9 -15 -6 -14 -18 -19
-36 -16 -5 0 -8 -4 -8 -10 0 -6 -8 -8 -17 -5 -19 6 -44 -5 -46 -20 -1 -5 -5
-8 -8 -7 -4 1 -9 -8 -11 -21 -5 -26 1 -26 51 1 26 13 51 3 51 -21 0 -7 20 -11
50 -11 27 0 50 -4 51 -10 2 -16 -112 -56 -161 -57 -32 0 -39 -2 -25 -8 l20 -8
-20 -7 c-11 -3 -35 -13 -53 -21 -44 -19 -45 -19 -27 17 11 19 22 29 31 25 8
-3 14 -1 14 3 0 5 -7 12 -16 15 -29 11 -10 15 28 7 27 -7 40 -5 49 5 8 10 3
16 -26 29 -21 8 -41 15 -46 15 -13 0 -11 14 4 29 8 10 8 12 0 7 -6 -3 -14 -2
-17 3 -4 6 -19 6 -39 0 -17 -5 -33 -9 -33 -9 -1 0 0 9 3 20 5 20 5 20 -53 0
-33 -11 -70 -26 -83 -32 -16 -9 -72 -13 -166 -13 -126 0 -145 2 -164 19 -35
31 -61 93 -61 144 0 26 -6 76 -14 112 -51 230 -55 295 -21 378 16 37 15 37
-25 17 -36 -18 -60 -52 -60 -83 0 -13 -4 -21 -8 -18 -18 11 -24 562 -8 700 13
114 55 174 151 217 85 38 150 50 430 79 156 17 360 9 404 -14 19 -10 59 -27
90 -37 115 -40 208 -124 231 -209 13 -46 34 -172 55 -320 32 -232 56 -332 86
-367 29 -34 35 -55 43 -165 3 -41 1 -70 -5 -74 -6 -3 -7 -20 -4 -37 5 -23 3
-28 -4 -17 -11 17 -8 23 -40 -80 l-21 -65 4 47 c2 27 0 48 -4 48 -5 0 -18 -20
-30 -44 -21 -44 -68 -74 -93 -59 -17 10 6 -310 32 -446 6 -29 11 -69 11 -88 0
-33 2 -35 25 -29 14 4 50 9 81 12 30 3 67 9 80 15 58 21 64 16 64 -63 0 -40 6
-83 13 -95 6 -11 25 -44 42 -73 31 -55 132 -142 221 -192 27 -15 70 -46 97
-69 51 -46 71 -46 41 -2 -12 19 -19 49 -20 91 -1 35 1 61 4 57 9 -9 41 -137
41 -167 1 -32 23 -49 191 -147 8 -5 32 -16 53 -25 20 -8 37 -21 37 -28 0 -7
14 -26 31 -42 16 -17 32 -41 36 -55 3 -15 14 -37 25 -50 47 -61 4 -268 -100
-476 -21 -44 -47 -103 -56 -132 -10 -28 -25 -62 -35 -75 -10 -13 -43 -75 -74
-138 -31 -63 -74 -148 -97 -188 l-41 -72 611 0 610 0 0 2545 0 2545 -2695 0
-2695 0 0 -2545z m1710 262 c0 -30 -4 -46 -10 -42 -5 3 -10 1 -10 -4 0 -6 7
-11 15 -11 12 0 15 -10 13 -39 -2 -27 -6 -36 -14 -30 -6 5 -15 4 -22 -3 -9 -9
-12 -6 -13 13 -2 35 -2 36 11 118 13 81 30 80 30 -2z m1440 -396 c0 -5 -7 -11
-15 -15 -15 -5 -20 5 -8 17 9 10 23 9 23 -2z m65 -71 c3 -5 -1 -10 -10 -10 -9
0 -13 5 -10 10 3 6 8 10 10 10 2 0 7 -4 10 -10z m-838 -95 c0 -8 -4 -15 -9
-15 -5 0 -6 -4 -3 -10 3 -5 1 -10 -4 -10 -13 0 -10 -22 4 -32 6 -4 2 -8 -7 -8
-21 0 -22 12 -6 57 13 35 25 44 25 18z m33 -37 c0 -4 -4 -8 -9 -8 -6 0 -12 4
-15 8 -3 5 1 9 9 9 8 0 15 -4 15 -9z m320 -9 c0 -5 -7 -9 -15 -9 -8 0 -15 7
-15 15 0 9 6 12 15 9 8 -4 15 -10 15 -15z m14 -49 c7 0 13 -7 13 -15 0 -8 -6
-15 -13 -15 -13 0 -25 23 -23 48 1 15 2 15 6 0 2 -10 10 -18 17 -18z m-327 -2
c-3 -8 -6 -5 -6 6 -1 11 2 17 5 13 3 -3 4 -12 1 -19z m211 -23 c3 -3 -18 -5
-46 -5 -29 0 -52 4 -52 8 0 8 90 6 98 -3z m107 -78 c7 -6 -2 -7 -25 -2 -19 4
-40 7 -47 8 -7 0 -10 4 -7 8 6 10 66 0 79 -14z m1325 -245 c0 -15 -2 -15 -10
-2 -13 20 -13 33 0 25 6 -3 10 -14 10 -23z m17 -59 c-3 -10 -5 -4 -5 12 0 17
2 24 5 18 2 -7 2 -21 0 -30z m48 -219 c4 -28 2 -35 -5 -24 -10 15 -14 78 -5
68 3 -3 8 -23 10 -44z"/>
<path d="M1686 3627 c-22 -16 -18 -65 5 -80 23 -14 67 0 74 24 8 25 -19 69
-43 69 -10 0 -26 -6 -36 -13z"/>
<path d="M3436 3627 c-22 -16 -18 -65 5 -80 23 -14 67 0 74 24 8 25 -19 69
-43 69 -10 0 -26 -6 -36 -13z"/>
<path d="M5285 3620 c-24 -27 -13 -68 22 -76 33 -9 57 6 61 38 6 50 -49 76
-83 38z"/>
<path d="M2240 3390 l0 -230 40 0 40 0 0 108 c0 66 5 117 13 132 16 32 58 47
95 34 37 -13 51 -58 51 -176 l1 -98 41 0 41 0 -4 128 c-4 143 -17 180 -70 208
-31 16 -111 16 -150 -1 -16 -6 -18 0 -18 59 l0 66 -40 0 -40 0 0 -230z"/>
<path d="M5660 3390 l0 -230 40 0 40 0 0 108 c0 66 5 117 13 132 16 32 58 47
95 34 37 -13 51 -58 51 -176 l1 -98 41 0 41 0 -4 128 c-4 143 -17 180 -70 208
-31 16 -111 16 -150 -1 -16 -6 -18 0 -18 59 l0 66 -40 0 -40 0 0 -230z"/>
<path d="M1370 3380 l0 -220 40 0 40 0 0 90 0 89 68 3 67 3 0 35 0 35 -67 3
-68 3 0 49 0 49 88 3 87 3 0 35 0 35 -127 3 -128 3 0 -221z"/>
<path d="M2980 3588 c1 -7 36 -105 78 -218 l77 -205 45 -3 45 -2 78 207 c42
115 77 214 77 221 0 7 -14 12 -39 12 l-39 0 -57 -160 c-32 -88 -61 -160 -65
-160 -4 0 -32 71 -63 158 l-54 157 -42 3 c-29 2 -41 -1 -41 -10z"/>
<path d="M4650 3588 c0 -7 26 -105 59 -218 l58 -205 44 0 44 0 40 137 c22 76
43 138 46 138 4 0 24 -63 45 -140 l39 -141 44 3 44 3 62 210 c34 116 60 213
58 218 -9 15 -72 7 -81 -10 -5 -10 -24 -78 -42 -150 -18 -73 -35 -133 -39
-133 -4 0 -22 60 -40 133 -44 169 -43 169 -89 165 -42 -4 -43 -5 -93 -192 -19
-69 -35 -112 -39 -105 -4 8 -20 61 -34 119 -15 58 -32 122 -37 143 -9 35 -12
37 -49 37 -25 0 -40 -5 -40 -12z"/>
<path d="M2640 3550 c0 -33 -3 -40 -20 -40 -16 0 -20 -7 -20 -35 0 -28 4 -35
20 -35 19 0 20 -7 20 -99 0 -55 4 -111 10 -126 12 -30 63 -55 115 -55 34 0 35
1 35 39 0 39 -1 40 -37 43 l-38 3 0 95 0 95 38 3 c35 3 37 5 37 38 0 33 -1 34
-40 34 l-40 0 0 40 0 40 -40 0 -40 0 0 -40z"/>
<path d="M5450 3550 c0 -33 -3 -40 -20 -40 -16 0 -20 -7 -20 -34 0 -25 5 -35
20 -39 18 -5 20 -14 20 -111 0 -95 2 -107 23 -132 19 -22 34 -28 80 -32 l57
-4 0 40 c0 40 -1 41 -37 44 l-38 3 0 95 0 95 38 3 c35 3 37 5 37 38 0 33 -1
34 -40 34 l-40 0 0 40 0 40 -40 0 -40 0 0 -40z"/>
<path d="M1680 3335 l0 -175 40 0 40 0 0 175 0 175 -40 0 -40 0 0 -175z"/>
<path d="M1890 3487 c-50 -33 -75 -82 -74 -147 0 -66 25 -122 67 -152 40 -28
115 -35 158 -14 41 20 39 21 39 -15 0 -44 -15 -66 -54 -79 -27 -9 -42 -8 -70
4 -20 8 -39 22 -42 31 -4 10 -19 15 -46 15 -39 0 -40 -1 -33 -27 30 -125 248
-138 313 -20 14 26 17 66 20 230 l4 197 -46 0 c-35 0 -46 -4 -46 -15 0 -14 -3
-14 -30 0 -44 23 -120 19 -160 -8z m161 -76 c23 -24 29 -38 29 -75 0 -64 -33
-101 -90 -101 -57 0 -90 37 -90 101 0 57 40 104 90 104 22 0 41 -9 61 -29z"/>
<path d="M3430 3335 l0 -175 40 0 40 0 0 175 0 175 -40 0 -40 0 0 -175z"/>
<path d="M3590 3335 l0 -175 40 0 40 0 0 111 c0 61 5 119 10 130 7 11 26 21
50 25 39 6 40 8 40 45 0 36 -2 39 -28 39 -15 0 -38 -7 -50 -16 -20 -14 -22
-14 -22 0 0 12 -10 16 -40 16 l-40 0 0 -175z"/>
<path d="M3812 3383 c2 -105 7 -134 23 -160 33 -56 118 -80 181 -51 22 10 28
10 32 0 2 -7 21 -12 43 -12 l39 0 0 175 0 175 -40 0 -40 0 0 -99 c0 -54 -5
-113 -11 -130 -13 -37 -49 -55 -92 -45 -43 9 -57 53 -57 174 l0 100 -41 0 -41
0 4 -127z"/>
<path d="M4248 3494 c-57 -31 -72 -109 -28 -149 11 -10 50 -28 87 -40 47 -15
69 -27 71 -40 8 -41 -66 -49 -96 -10 -24 30 -92 37 -92 10 0 -58 65 -105 145
-105 59 0 103 23 120 63 29 70 -2 111 -111 147 -56 19 -65 25 -62 44 5 38 98
29 98 -9 0 -11 12 -15 40 -15 43 0 48 8 30 54 -22 58 -136 86 -202 50z"/>
<path d="M5280 3335 l0 -175 40 0 40 0 0 175 0 175 -40 0 -40 0 0 -175z"/>
<path d="M9835 3103 c64 -8 74 -14 105 -65 18 -29 40 -62 51 -73 10 -11 31
-45 47 -75 20 -36 35 -54 46 -52 11 2 16 -4 16 -18 0 -12 -4 -18 -10 -15 -5 3
-10 0 -10 -9 0 -8 -3 -21 -6 -30 -12 -33 13 -15 35 24 16 29 31 43 52 47 29 6
71 50 83 90 4 13 18 26 32 29 14 4 24 13 24 24 0 27 -68 79 -125 95 -63 18
-224 35 -307 34 -35 -1 -49 -4 -33 -6z m372 -49 c-3 -3 -12 -4 -19 -1 -8 3 -5
6 6 6 11 1 17 -2 13 -5z m8 -24 c3 -6 -1 -7 -9 -4 -18 7 -21 14 -7 14 6 0 13
-4 16 -10z"/>
<path d="M2915 2900 c-24 -27 -13 -68 22 -76 33 -9 57 6 61 38 6 50 -49 76
-83 38z"/>
<path d="M9580 2890 c-72 -28 -120 -60 -135 -91 -14 -26 -14 -29 5 -39 14 -8
20 -21 20 -45 0 -19 5 -35 10 -35 6 0 10 16 10 35 0 19 5 35 11 35 7 0 10 -12
7 -29 -2 -17 -1 -28 4 -25 4 3 8 -2 8 -10 0 -24 19 -19 29 7 5 12 18 30 29 40
20 18 21 18 32 -2 11 -22 63 -30 75 -11 3 6 11 10 17 10 6 0 5 -7 -3 -16 -12
-15 -11 -16 11 -9 64 20 88 58 55 85 -22 18 -181 8 -223 -14 -74 -38 -12 24
81 81 32 19 57 36 55 38 -15 12 -61 9 -98 -5z m50 -110 c0 -5 -8 -10 -18 -10
-10 0 -23 -5 -28 -10 -10 -10 -54 -22 -54 -15 0 5 60 32 98 44 1 1 2 -3 2 -9z"/>
<path d="M10275 2900 c-3 -5 3 -10 14 -10 11 0 31 -15 45 -32 l26 -33 0 27 c0
15 -7 34 -16 42 -17 18 -60 21 -69 6z"/>
<path d="M1340 2868 c0 -7 35 -107 77 -221 l78 -208 44 3 44 3 79 209 c43 115
78 213 78 218 0 5 -19 8 -41 6 l-42 -3 -54 -155 c-30 -85 -58 -158 -62 -163
-4 -4 -31 62 -60 145 -30 84 -58 159 -64 166 -5 6 -25 12 -43 12 -21 0 -34 -5
-34 -12z"/>
<path d="M10203 2795 c-3 -8 -10 -12 -16 -8 -7 4 -8 -6 -4 -30 4 -28 2 -37 -9
-37 -8 0 -14 -4 -14 -10 0 -5 8 -6 17 -3 13 5 15 2 10 -12 -4 -9 -2 -24 4 -31
15 -18 -11 -19 -31 -1 -8 6 -7 3 3 -9 9 -11 14 -24 10 -27 -3 -4 3 -7 14 -7
11 0 26 7 33 15 7 8 18 15 26 15 7 0 25 10 40 23 49 43 27 106 -44 127 -26 7
-34 6 -39 -5z m47 -93 c0 -24 -8 -32 -26 -25 -22 8 -17 43 6 43 13 0 20 -7 20
-18z"/>
<path d="M1839 2767 c-42 -28 -79 -98 -79 -152 0 -54 37 -124 79 -152 40 -27
111 -31 155 -8 35 18 36 18 36 0 0 -11 11 -15 40 -15 l40 0 0 175 0 175 -40 0
c-29 0 -40 -4 -40 -15 0 -19 -9 -19 -34 0 -31 24 -117 19 -157 -8z m164 -75
c26 -27 33 -91 14 -129 -48 -92 -173 -48 -171 59 1 34 8 48 34 71 27 24 39 28
68 23 20 -3 44 -14 55 -24z"/>
<path d="M2250 2768 c-61 -42 -75 -71 -75 -153 0 -59 4 -79 21 -102 36 -49 82
-73 138 -73 67 0 115 26 144 78 l23 42 -42 0 c-32 0 -47 -6 -65 -25 -30 -32
-74 -33 -111 -1 -25 21 -28 31 -28 81 0 50 3 60 28 81 37 32 81 31 112 -2 19
-20 31 -25 64 -22 l41 3 -17 35 c-27 53 -75 80 -143 80 -43 0 -65 -6 -90 -22z"/>
<path d="M2610 2768 c-61 -42 -75 -71 -75 -153 0 -59 4 -79 21 -102 36 -49 82
-73 138 -73 67 0 115 26 144 78 l23 42 -42 0 c-32 0 -47 -6 -65 -25 -30 -32
-74 -33 -111 -1 -25 21 -28 31 -28 81 0 50 3 60 28 81 37 32 81 31 112 -2 19
-20 31 -25 64 -22 l41 3 -17 35 c-27 53 -75 80 -143 80 -43 0 -65 -6 -90 -22z"/>
<path d="M2910 2615 l0 -175 40 0 40 0 0 175 0 175 -40 0 -40 0 0 -175z"/>
<path d="M3070 2615 l0 -175 40 0 40 0 0 115 c0 110 1 117 25 140 30 30 64 32
99 4 25 -20 26 -23 26 -140 l0 -119 41 0 41 0 -4 140 -3 140 -32 31 c-26 26
-42 33 -86 37 -33 2 -63 -1 -78 -8 -17 -10 -24 -10 -27 -1 -2 6 -21 11 -43 11
l-39 0 0 -175z"/>
<path d="M3520 2771 c-51 -27 -80 -83 -80 -157 0 -70 23 -113 79 -151 64 -43
178 -24 221 37 30 42 26 60 -14 60 -21 0 -42 -9 -60 -25 -42 -39 -112 -28
-135 21 l-11 24 126 0 126 0 -4 60 c-5 69 -27 106 -79 132 -45 24 -125 23
-169 -1z m146 -76 c14 -14 22 -30 19 -35 -3 -6 -40 -10 -81 -10 -81 0 -93 11
-54 50 29 29 84 27 116 -5z"/>
<path d="M3868 2775 c-34 -19 -48 -44 -48 -87 0 -51 23 -74 97 -98 82 -27 102
-42 83 -64 -20 -25 -68 -20 -94 9 -30 32 -96 36 -96 6 0 -25 35 -68 70 -86 68
-35 178 -7 200 51 25 64 -7 108 -101 139 -68 23 -95 48 -69 65 26 17 74 7 85
-17 8 -18 18 -23 47 -23 34 0 38 3 38 25 0 14 -13 39 -29 57 -25 29 -35 32
-92 35 -44 2 -72 -1 -91 -12z"/>
<path d="M9063 2765 c6 -16 56 -37 111 -45 28 -4 44 -9 36 -12 -8 -3 -36 -13
-62 -22 -25 -10 -50 -25 -54 -34 -15 -36 -13 -50 9 -56 16 -5 28 1 47 23 l25
29 17 -22 c13 -18 24 -22 48 -18 17 2 36 12 42 22 7 10 18 15 26 12 10 -3 13
-1 9 5 -4 6 -1 13 5 16 19 7 -49 75 -97 98 -43 21 -168 25 -162 4z m154 -81
c-3 -3 -12 -4 -19 -1 -8 3 -5 6 6 6 11 1 17 -2 13 -5z"/>
<path d="M10106 2739 c-14 -20 -13 -24 6 -52 25 -35 39 -21 28 30 -11 46 -15
49 -34 22z"/>
<path d="M9038 2743 c-9 -2 -19 -12 -23 -21 -5 -14 -4 -15 6 -4 7 6 21 12 31
12 10 0 18 5 18 10 0 10 -4 11 -32 3z"/>
<path d="M10141 2525 c-1 -35 13 -63 23 -47 4 6 0 26 -8 44 l-14 33 -1 -30z"/>
<path d="M9660 2399 c-8 -4 -28 -10 -43 -14 -16 -3 -27 -11 -24 -18 2 -7 11
-10 18 -8 8 2 19 4 26 4 7 0 10 4 7 9 -3 4 2 8 10 8 8 0 18 5 21 11 10 14 3
18 -15 8z"/>
<path d="M10109 1793 c-38 -40 -89 -126 -89 -149 0 -8 9 -14 20 -14 11 0 20 4
20 10 0 20 42 120 65 154 13 20 23 36 22 36 -2 0 -19 -17 -38 -37z"/>
<path d="M8268 1779 c-26 -15 -22 -29 8 -29 14 0 48 -10 76 -22 37 -16 53 -19
56 -10 2 7 10 12 18 12 8 0 14 6 14 13 0 7 -28 20 -67 30 -78 20 -82 20 -105
6z"/>
<path d="M8616 1748 c11 -36 35 -80 41 -75 6 6 -33 97 -42 97 -4 0 -3 -10 1
-22z"/>
<path d="M8074 1713 c13 -28 18 -28 33 -4 10 17 9 19 -16 23 -25 4 -26 2 -17
-19z"/>
<path d="M9919 1683 c-13 -16 -12 -17 4 -4 16 13 21 21 13 21 -2 0 -10 -8 -17
-17z"/>
<path d="M8217 1663 c-4 -3 -7 -11 -7 -17 0 -6 5 -5 12 2 6 6 9 14 7 17 -3 3
-9 2 -12 -2z"/>
<path d="M8304 1597 l27 -35 -41 -38 c-23 -22 -38 -44 -35 -52 3 -7 -14 -31
-40 -54 -25 -23 -43 -43 -41 -45 7 -7 62 19 123 58 44 29 68 39 82 34 60 -19
-12 116 -83 156 -14 8 -12 2 8 -24z"/>
<path d="M1408 1603 c-34 -13 -38 -19 -38 -49 0 -48 23 -99 55 -120 25 -16 27
-16 53 3 36 27 52 60 52 109 0 39 -2 43 -40 58 -22 9 -41 16 -43 15 -1 0 -19
-7 -39 -16z m82 -61 c0 -5 -11 -19 -25 -32 -20 -19 -27 -21 -40 -10 -21 17
-19 33 4 25 10 -3 24 1 31 10 13 16 30 20 30 7z"/>
<path d="M8510 1605 c0 -2 9 -19 21 -37 18 -29 20 -30 15 -8 -3 14 -6 31 -6
38 0 6 -7 12 -15 12 -8 0 -15 -2 -15 -5z"/>
<path d="M4042 1575 c-9 -19 -19 -25 -44 -25 l-32 0 26 -27 c20 -23 24 -33 18
-55 -9 -32 -4 -34 28 -12 20 14 24 14 44 0 31 -22 35 -20 30 15 -3 22 2 37 19
55 l22 24 -31 0 c-25 0 -35 6 -44 25 -6 14 -14 25 -18 25 -4 0 -12 -11 -18
-25z"/>
<path d="M4990 1535 c0 -30 5 -55 10 -55 6 0 10 25 10 55 0 30 -4 55 -10 55
-5 0 -10 -25 -10 -55z"/>
<path d="M5430 1576 c0 -9 -12 -16 -32 -18 -60 -6 -47 -79 13 -75 28 2 29 4
29 55 0 28 -2 52 -5 52 -3 0 -5 -6 -5 -14z m-6 -43 c4 -9 0 -23 -9 -32 -13
-14 -17 -14 -31 1 -9 9 -14 24 -11 32 8 21 43 20 51 -1z"/>
<path d="M2200 1530 c0 -45 2 -50 23 -50 37 0 54 16 40 38 -8 14 -8 23 -1 30
16 16 0 32 -33 32 -28 0 -29 -1 -29 -50z m50 25 c0 -8 -9 -15 -20 -15 -11 0
-20 7 -20 15 0 8 9 15 20 15 11 0 20 -7 20 -15z m5 -45 c0 -8 -10 -16 -22 -18
-18 -3 -23 2 -23 18 0 16 5 21 23 18 12 -2 22 -10 22 -18z"/>
<path d="M2468 1569 c-2 -6 -2 -28 0 -50 3 -28 9 -39 21 -38 10 0 11 2 4 6
-15 5 -18 60 -4 65 5 2 3 8 -4 15 -9 8 -15 9 -17 2z"/>
<path d="M2818 1569 c-2 -6 -2 -28 0 -50 3 -28 9 -39 21 -38 10 0 11 2 4 6
-15 5 -18 60 -4 65 5 2 3 8 -4 15 -9 8 -15 9 -17 2z"/>
<path d="M3050 1546 c0 -46 9 -66 29 -65 10 0 11 2 4 6 -16 6 -17 63 -2 63 6
0 4 7 -5 15 -22 22 -26 19 -26 -19z"/>
<path d="M4810 1560 c0 -13 10 -24 25 -30 14 -5 25 -14 25 -19 0 -18 -21 -23
-37 -9 -14 11 -15 11 -11 -2 2 -8 16 -15 29 -15 35 0 38 38 4 53 -33 15 -33
36 0 30 14 -3 25 -1 25 3 0 5 -13 9 -30 9 -23 0 -30 -4 -30 -20z"/>
<path d="M5218 1569 c-2 -6 -2 -28 0 -50 3 -28 9 -39 21 -38 10 0 11 2 4 6
-15 5 -18 60 -4 65 5 2 3 8 -4 15 -9 8 -15 9 -17 2z"/>
<path d="M5502 1569 c3 -8 11 -31 19 -52 7 -20 17 -36 22 -34 12 4 48 97 38
97 -4 0 -14 -18 -21 -40 -15 -44 -25 -44 -35 0 -4 16 -11 33 -17 37 -7 4 -9 1
-6 -8z"/>
<path d="M9730 1570 c0 -5 4 -10 9 -10 6 0 13 5 16 10 3 6 -1 10 -9 10 -9 0
-16 -4 -16 -10z"/>
<path d="M2297 1554 c-4 -4 -7 -20 -7 -35 0 -22 6 -30 26 -35 14 -4 30 -2 36
4 8 8 4 11 -15 9 -34 -3 -36 17 -2 21 18 2 25 9 23 20 -3 17 -48 29 -61 16z
m48 -14 c4 -6 -5 -10 -20 -10 -15 0 -24 4 -20 10 3 6 12 10 20 10 8 0 17 -4
20 -10z"/>
<path d="M2387 1553 c-13 -12 -7 -23 18 -35 29 -13 23 -32 -8 -22 -17 5 -19 3
-11 -6 7 -6 20 -10 30 -8 27 5 30 35 5 43 -12 3 -21 11 -21 16 0 6 9 7 21 4
15 -5 19 -4 15 4 -8 12 -39 15 -49 4z"/>
<path d="M2561 1496 c1 -34 4 -49 6 -34 3 21 9 26 30 25 15 -1 30 5 37 16 16
26 -4 52 -43 53 l-31 1 1 -61z m63 37 c4 -9 0 -23 -9 -32 -13 -14 -17 -14 -31
1 -9 9 -14 24 -11 32 8 21 43 20 51 -1z"/>
<path d="M2660 1520 c0 -22 5 -40 10 -40 6 0 10 13 10 28 0 15 5 33 12 40 9 9
7 12 -10 12 -19 0 -22 -5 -22 -40z"/>
<path d="M2720 1541 c-22 -43 29 -83 60 -47 6 8 10 25 8 38 -4 32 -52 38 -68
9z m55 -21 c0 -16 -6 -26 -18 -28 -19 -4 -32 20 -23 44 9 25 41 13 41 -16z"/>
<path d="M2870 1540 c-8 -14 -8 -26 0 -40 11 -20 44 -27 54 -12 3 5 -4 8 -16
8 -12 -1 -23 5 -25 12 -3 8 6 12 27 12 25 0 31 3 26 16 -3 9 -6 18 -6 20 0 14
-51 1 -60 -16z m55 0 c4 -6 -5 -10 -20 -10 -15 0 -24 4 -20 10 3 6 12 10 20
10 8 0 17 -4 20 -10z"/>
<path d="M2967 1553 c-4 -3 -7 -19 -7 -34 0 -22 6 -30 26 -35 14 -4 30 -2 36
4 8 8 3 11 -18 9 -25 -2 -29 2 -29 23 0 21 4 25 28 23 15 -1 25 2 22 8 -7 10
-48 12 -58 2z"/>
<path d="M3113 1520 c0 -25 2 -35 4 -22 2 12 2 32 0 45 -2 12 -4 2 -4 -23z"/>
<path d="M3150 1541 c-22 -43 29 -83 60 -47 6 8 10 25 8 38 -4 32 -52 38 -68
9z m55 -21 c0 -29 -32 -41 -41 -16 -9 24 4 48 23 44 12 -2 18 -12 18 -28z"/>
<path d="M3240 1520 c0 -22 5 -40 10 -40 6 0 10 16 10 35 0 28 4 35 20 35 16
0 20 -7 20 -35 0 -19 5 -35 10 -35 14 0 12 54 -2 68 -7 7 -25 12 -40 12 -26 0
-28 -3 -28 -40z"/>
<path d="M4900 1540 c-8 -14 -8 -26 0 -40 11 -20 44 -27 54 -12 3 5 -4 8 -16
8 -12 -1 -23 5 -25 12 -3 8 6 12 27 12 25 0 31 3 26 16 -3 9 -6 18 -6 20 0 14
-51 1 -60 -16z m55 0 c4 -6 -5 -10 -20 -10 -15 0 -24 4 -20 10 3 6 12 10 20
10 8 0 17 -4 20 -10z"/>
<path d="M5037 1554 c-4 -4 -7 -20 -7 -35 0 -22 6 -30 26 -35 14 -4 30 -2 36
4 8 8 4 11 -15 9 -34 -3 -36 17 -2 21 18 2 25 9 23 20 -3 17 -48 29 -61 16z
m48 -14 c4 -6 -5 -10 -20 -10 -15 0 -24 4 -20 10 3 6 12 10 20 10 8 0 17 -4
20 -10z"/>
<path d="M5127 1553 c-11 -11 -8 -48 5 -61 15 -15 45 -16 53 -2 4 7 -2 9 -18
5 -20 -5 -27 -2 -32 14 -9 30 3 44 32 36 16 -4 22 -2 18 5 -7 11 -48 14 -58 3z"/>
<path d="M5277 1554 c-4 -4 -7 -20 -7 -35 0 -22 6 -30 26 -35 14 -4 30 -2 36
4 8 8 4 11 -15 9 -34 -3 -36 17 -2 21 18 2 25 9 23 20 -3 17 -48 29 -61 16z
m48 -14 c4 -6 -5 -10 -20 -10 -15 0 -24 4 -20 10 3 6 12 10 20 10 8 0 17 -4
20 -10z"/>
<path d="M5610 1540 c-17 -31 4 -61 40 -58 27 2 30 6 30 38 0 32 -3 36 -30 38
-20 2 -32 -4 -40 -18z m55 -20 c0 -29 -32 -41 -41 -16 -9 24 4 48 23 44 12 -2
18 -12 18 -28z"/>
<path d="M5710 1540 c-8 -14 -8 -26 0 -40 11 -20 44 -27 54 -12 3 5 -5 8 -17
8 -17 -1 -22 5 -22 24 0 19 5 25 23 24 12 0 22 3 22 8 0 17 -50 7 -60 -12z"/>
<path d="M5800 1540 c-8 -14 -8 -26 0 -40 11 -20 44 -27 54 -12 3 5 -5 8 -17
8 -17 -1 -22 5 -22 24 0 19 5 25 23 24 12 0 22 3 22 8 0 17 -50 7 -60 -12z"/>
<path d="M5893 1520 c0 -25 2 -35 4 -22 2 12 2 32 0 45 -2 12 -4 2 -4 -23z"/>
<path d="M5931 1518 l2 -43 6 35 c4 26 11 35 26 35 15 0 22 -9 27 -35 l6 -35
-1 40 c-2 37 -4 40 -34 43 -33 3 -33 3 -32 -40z"/>
<path d="M6032 1548 c-25 -25 -6 -68 29 -68 10 0 21 4 24 10 4 6 -3 9 -16 7
-12 -1 -24 4 -26 11 -3 8 6 12 26 12 17 0 31 4 31 8 0 14 -23 32 -40 32 -9 0
-21 -5 -28 -12z m48 -8 c0 -5 -9 -10 -20 -10 -11 0 -20 5 -20 10 0 6 9 10 20
10 11 0 20 -4 20 -10z"/>
<path d="M6120 1541 c0 -10 9 -21 20 -24 11 -3 20 -11 20 -17 0 -7 -8 -10 -20
-7 -11 3 -18 1 -14 -4 9 -15 41 -10 48 6 4 10 -3 20 -19 27 -30 13 -33 33 -5
25 11 -3 20 -1 20 4 0 5 -11 9 -25 9 -18 0 -25 -5 -25 -19z"/>
<path d="M10010 1525 c12 -15 6 -35 -11 -35 -6 0 -7 5 -4 10 3 6 2 10 -4 10
-18 0 -21 -18 -4 -24 9 -4 23 0 31 8 16 16 10 46 -9 46 -8 0 -8 -4 1 -15z"/>
<path d="M8716 1479 c-6 -17 -9 -39 -7 -58 1 -11 5 -11 20 3 21 19 22 39 3 58
-9 9 -13 8 -16 -3z"/>
<path d="M8665 1430 c-3 -5 -17 -10 -30 -10 -21 0 -85 -61 -85 -82 0 -14 71
-27 96 -18 15 6 24 6 24 0 0 -6 -5 -10 -12 -10 -6 0 -8 -3 -5 -6 4 -4 22 5 40
19 19 14 37 23 41 20 3 -4 6 -1 6 5 0 7 -5 12 -12 12 -6 0 -3 7 8 16 19 15 18
15 -3 11 -15 -3 -24 1 -28 13 -8 26 -32 44 -40 30z"/>
<path d="M8750 1425 c-7 -9 -8 -15 -2 -15 5 0 12 7 16 15 3 8 4 15 2 15 -2 0
-9 -7 -16 -15z"/>
<path d="M8770 1390 c0 -11 5 -20 10 -20 6 0 10 9 10 20 0 11 -4 20 -10 20 -5
0 -10 -9 -10 -20z"/>
<path d="M8373 1338 c-21 -18 -41 -38 -46 -45 -4 -7 -14 -19 -23 -27 -8 -9
-13 -20 -9 -25 3 -6 -7 -21 -22 -35 l-28 -26 24 0 c16 0 21 -4 17 -15 -3 -10
1 -15 13 -15 10 0 30 -18 46 -42 25 -37 29 -40 40 -24 12 16 13 16 20 -1 19
-48 48 221 29 271 -9 23 -18 20 -61 -16z"/>
<path d="M8712 1328 c-18 -18 -15 -41 4 -34 9 3 18 6 20 6 8 0 4 29 -4 34 -5
3 -14 0 -20 -6z"/>
<path d="M1388 551 c-27 -24 -33 -36 -33 -71 0 -35 6 -47 33 -71 45 -40 84
-39 128 5 24 24 34 43 34 66 0 23 -10 42 -34 66 -44 44 -83 45 -128 5z m117
-16 c50 -49 15 -135 -55 -135 -41 0 -80 39 -80 80 0 41 39 80 80 80 19 0 40
-9 55 -25z"/>
<path d="M1441 503 c-1 -23 5 -35 18 -43 29 -15 38 -12 14 5 -12 8 -24 28 -26
43 -4 25 -4 25 -6 -5z"/>
<path d="M3270 540 c0 -5 5 -10 11 -10 5 0 7 5 4 10 -3 6 -8 10 -11 10 -2 0
-4 -4 -4 -10z"/>
<path d="M3600 540 c0 -5 5 -10 10 -10 6 0 10 5 10 10 0 6 -4 10 -10 10 -5 0
-10 -4 -10 -10z"/>
<path d="M7901 519 c-16 -47 -14 -74 10 -100 l20 -24 -6 23 c-4 12 -6 47 -6
77 0 30 -2 55 -4 55 -2 0 -8 -14 -14 -31z"/>
<path d="M1592 528 c-21 -21 -13 -39 24 -54 34 -14 36 -17 20 -32 -12 -13 -18
-13 -28 -4 -17 17 -33 15 -18 -3 16 -19 44 -19 60 0 17 20 6 43 -25 51 -14 3
-25 13 -25 21 0 12 7 14 31 9 27 -5 30 -4 19 9 -15 18 -42 19 -58 3z"/>
<path d="M1792 480 c0 -36 2 -56 5 -45 2 11 6 30 9 43 3 14 12 22 24 22 12 0
21 -8 24 -22 13 -58 14 -60 13 -18 -2 43 -4 45 -34 48 -20 2 -33 10 -36 20 -3
9 -5 -12 -5 -48z"/>
<path d="M2080 525 c0 -10 -10 -15 -28 -15 -34 0 -52 -16 -52 -46 0 -29 20
-44 58 -41 32 2 32 2 32 60 0 31 -2 57 -5 57 -3 0 -5 -7 -5 -15z m-12 -37 c16
-16 15 -23 -3 -42 -20 -20 -45 -10 -45 18 0 36 24 48 48 24z"/>
<path d="M2230 480 c0 -33 4 -60 10 -60 6 0 10 27 10 60 0 33 -4 60 -10 60 -6
0 -10 -27 -10 -60z"/>
<path d="M3538 523 c-2 -10 -1 -36 2 -58 4 -30 10 -41 25 -43 16 -3 18 -1 8 9
-7 7 -13 25 -13 40 0 15 6 30 13 32 10 4 10 6 0 6 -7 1 -13 8 -13 16 0 21 -17
19 -22 -2z"/>
<path d="M1689 489 c-25 -48 37 -95 71 -54 14 17 0 21 -16 5 -19 -19 -45 0
-42 29 2 22 8 26 31 24 15 -1 25 2 22 8 -11 17 -54 10 -66 -12z"/>
<path d="M1901 492 c-15 -28 -2 -61 25 -68 23 -6 61 13 49 24 -2 3 -11 0 -18
-7 -8 -6 -22 -9 -31 -5 -28 11 -17 24 19 24 35 0 40 5 29 34 -9 23 -61 21 -73
-2z m59 -7 c0 -16 -35 -21 -44 -6 -8 12 4 21 26 21 10 0 18 -7 18 -15z"/>
<path d="M2120 476 c0 -40 15 -55 52 -53 26 2 28 5 26 47 -1 35 -2 38 -5 13
-8 -62 -53 -69 -53 -7 0 19 -4 34 -10 34 -5 0 -10 -15 -10 -34z"/>
<path d="M2282 498 c-16 -16 -15 -53 2 -68 18 -15 58 -10 64 8 3 11 0 12 -17
3 -22 -12 -41 -7 -41 10 0 5 16 9 35 9 38 0 40 2 25 31 -12 21 -50 25 -68 7z
m56 -15 c2 -8 -6 -13 -22 -13 -25 0 -33 10 -19 24 10 10 36 3 41 -11z"/>
<path d="M2420 501 c0 -5 7 -25 15 -45 12 -27 13 -42 5 -56 -6 -11 -7 -20 -2
-20 5 0 21 27 36 61 29 68 30 69 17 69 -5 0 -12 -13 -16 -30 -4 -16 -10 -30
-15 -30 -4 0 -13 14 -19 30 -9 29 -21 40 -21 21z"/>
<path d="M2532 498 c-17 -17 -15 -53 3 -68 38 -31 96 27 65 65 -15 18 -51 20
-68 3z m56 -29 c4 -30 -22 -46 -44 -28 -17 14 -18 31 -2 47 19 19 43 9 46 -19z"/>
<path d="M2630 476 c0 -40 15 -55 52 -53 26 2 28 5 26 47 -1 35 -2 38 -5 13
-8 -62 -53 -69 -53 -7 0 19 -4 34 -10 34 -5 0 -10 -15 -10 -34z"/>
<path d="M2740 465 c0 -25 5 -45 10 -45 6 0 10 15 10 33 0 18 5 38 12 45 9 9
7 12 -10 12 -19 0 -22 -5 -22 -45z"/>
<path d="M2858 465 c9 -25 21 -45 27 -45 5 0 17 20 26 45 20 54 8 61 -13 8
l-14 -38 -13 38 c-7 20 -16 37 -21 37 -5 0 -2 -20 8 -45z"/>
<path d="M2950 490 c-11 -20 -6 -59 8 -61 4 -1 24 -3 45 -4 l37 -2 0 42 0 42
-40 1 c-30 1 -42 -3 -50 -18z m65 -11 c10 -30 -18 -57 -39 -39 -16 13 -21 42
-9 53 14 14 42 6 48 -14z"/>
<path d="M3072 498 c-17 -17 -15 -53 3 -68 16 -14 65 -6 65 11 0 6 -8 6 -21
-2 -26 -14 -42 0 -37 32 2 19 9 24 31 22 15 -1 25 2 22 8 -9 13 -49 11 -63 -3z"/>
<path d="M3172 498 c-17 -17 -15 -53 3 -68 16 -14 65 -6 65 11 0 6 -8 6 -21
-2 -26 -14 -42 0 -37 32 2 19 9 24 31 22 15 -1 25 2 22 8 -9 13 -49 11 -63 -3z"/>
<path d="M3273 465 c0 -27 2 -38 4 -22 2 15 2 37 0 50 -2 12 -4 0 -4 -28z"/>
<path d="M3310 465 c0 -54 18 -60 22 -7 2 29 7 37 23 37 16 0 21 -8 23 -37 4
-42 22 -52 22 -12 0 44 -17 64 -55 64 -35 0 -35 0 -35 -45z"/>
<path d="M3424 483 c-10 -37 7 -58 50 -60 36 -1 36 -1 36 41 l0 43 -40 1 c-35
2 -40 -1 -46 -25z m64 -12 c4 -25 -13 -42 -34 -34 -19 7 -26 34 -13 50 17 20
43 12 47 -16z"/>
<path d="M3600 465 c0 -25 5 -45 10 -45 6 0 10 20 10 45 0 25 -4 45 -10 45 -5
0 -10 -20 -10 -45z"/>
<path d="M3650 490 c-15 -29 -4 -59 26 -66 34 -9 56 12 52 50 -3 27 -7 31 -35
34 -24 2 -34 -2 -43 -18z m64 -12 c14 -22 -12 -52 -37 -42 -17 6 -23 44 -10
58 11 11 35 3 47 -16z"/>
<path d="M3761 463 l2 -48 6 40 c5 31 10 40 26 40 16 0 21 -8 23 -37 4 -45 22
-51 22 -9 0 49 -9 61 -46 61 l-34 0 1 -47z"/>
<path d="M3865 500 c-9 -14 3 -30 33 -41 19 -7 22 -13 14 -21 -8 -8 -15 -8
-27 2 -8 7 -19 10 -22 6 -11 -10 19 -27 42 -24 30 4 31 36 1 48 -35 13 -34 34
0 26 17 -5 23 -3 19 4 -8 13 -52 13 -60 0z"/>
<path d="M3950 430 c0 -5 5 -10 10 -10 6 0 10 5 10 10 0 6 -4 10 -10 10 -5 0
-10 -4 -10 -10z"/>
<path d="M8292 348 c-11 -40 -23 -81 -27 -91 -6 -15 -4 -16 16 -9 16 6 31 27
46 67 20 53 21 59 6 81 -8 13 -17 24 -18 24 -1 0 -12 -33 -23 -72z"/>
<path d="M8641 360 c-2 -8 -4 -35 -6 -60 -3 -44 -3 -44 6 -11 6 18 8 45 6 60
-2 14 -5 19 -6 11z"/>
<path d="M8369 213 c-3 -22 3 -71 12 -101 10 -29 8 -37 -15 -67 -14 -18 -26
-36 -26 -39 0 -3 19 -6 41 -6 l41 0 -6 58 c-11 109 -21 155 -33 160 -7 2 -13
0 -14 -5z"/>
<path d="M2652 15 c-11 -13 -2 -15 68 -15 77 0 81 1 64 17 -13 13 -19 14 -22
5 -4 -14 -82 -17 -82 -2 0 14 -13 12 -28 -5z"/>
<path d="M1430 10 c-11 -7 -3 -10 30 -10 33 0 41 3 30 10 -8 5 -22 10 -30 10
-8 0 -22 -5 -30 -10z"/>
</g>
</svg>
